<svg id="visual" viewBox="0 0 960 540" width="960" height="540" xmlns="http://www.w3.org/2000/svg" xmlns:xlink="http://www.w3.org/1999/xlink" version="1.1"><rect x="0" y="0" width="960" height="540" fill="#001220"></rect><defs><linearGradient id="grad1_0" x1="43.8%" y1="0%" x2="100%" y2="100%"><stop offset="14.444444444444446%" stop-color="#0066ff" stop-opacity="1"></stop><stop offset="85.55555555555554%" stop-color="#0066ff" stop-opacity="1"></stop></linearGradient></defs><defs><linearGradient id="grad1_1" x1="43.8%" y1="0%" x2="100%" y2="100%"><stop offset="14.444444444444446%" stop-color="#0066ff" stop-opacity="1"></stop><stop offset="85.55555555555554%" stop-color="#0059d1" stop-opacity="1"></stop></linearGradient></defs><defs><linearGradient id="grad1_2" x1="43.8%" y1="0%" x2="100%" y2="100%"><stop offset="14.444444444444446%" stop-color="#0049a3" stop-opacity="1"></stop><stop offset="85.55555555555554%" stop-color="#0059d1" stop-opacity="1"></stop></linearGradient></defs><defs><linearGradient id="grad1_3" x1="43.8%" y1="0%" x2="100%" y2="100%"><stop offset="14.444444444444446%" stop-color="#0049a3" stop-opacity="1"></stop><stop offset="85.55555555555554%" stop-color="#003775" stop-opacity="1"></stop></linearGradient></defs><defs><linearGradient id="grad1_4" x1="43.8%" y1="0%" x2="100%" y2="100%"><stop offset="14.444444444444446%" stop-color="#002548" stop-opacity="1"></stop><stop offset="85.55555555555554%" stop-color="#003775" stop-opacity="1"></stop></linearGradient></defs><defs><linearGradient id="grad1_5" x1="43.8%" y1="0%" x2="100%" y2="100%"><stop offset="14.444444444444446%" stop-color="#002548" stop-opacity="1"></stop><stop offset="85.55555555555554%" stop-color="#001220" stop-opacity="1"></stop></linearGradient></defs><defs><linearGradient id="grad2_0" x1="0%" y1="0%" x2="56.3%" y2="100%"><stop offset="14.444444444444446%" stop-color="#0066ff" stop-opacity="1"></stop><stop offset="85.55555555555554%" stop-color="#0066ff" stop-opacity="1"></stop></linearGradient></defs><defs><linearGradient id="grad2_1" x1="0%" y1="0%" x2="56.3%" y2="100%"><stop offset="14.444444444444446%" stop-color="#0059d1" stop-opacity="1"></stop><stop offset="85.55555555555554%" stop-color="#0066ff" stop-opacity="1"></stop></linearGradient></defs><defs><linearGradient id="grad2_2" x1="0%" y1="0%" x2="56.3%" y2="100%"><stop offset="14.444444444444446%" stop-color="#0059d1" stop-opacity="1"></stop><stop offset="85.55555555555554%" stop-color="#0049a3" stop-opacity="1"></stop></linearGradient></defs><defs><linearGradient id="grad2_3" x1="0%" y1="0%" x2="56.3%" y2="100%"><stop offset="14.444444444444446%" stop-color="#003775" stop-opacity="1"></stop><stop offset="85.55555555555554%" stop-color="#0049a3" stop-opacity="1"></stop></linearGradient></defs><defs><linearGradient id="grad2_4" x1="0%" y1="0%" x2="56.3%" y2="100%"><stop offset="14.444444444444446%" stop-color="#003775" stop-opacity="1"></stop><stop offset="85.55555555555554%" stop-color="#002548" stop-opacity="1"></stop></linearGradient></defs><defs><linearGradient id="grad2_5" x1="0%" y1="0%" x2="56.3%" y2="100%"><stop offset="14.444444444444446%" stop-color="#001220" stop-opacity="1"></stop><stop offset="85.55555555555554%" stop-color="#002548" stop-opacity="1"></stop></linearGradient></defs><g transform="translate(960, 0)"><path d="M0 513C-55.2 510.4 -110.3 507.8 -158.5 487.9C-206.7 468 -248 430.7 -286.8 394.8C-325.7 358.9 -362.1 324.2 -390.8 283.9C-419.4 243.6 -440.3 197.5 -459.4 149.3C-478.4 101 -495.7 50.5 -513 0L0 0Z" fill="#001c33"></path><path d="M0 427.5C-46 425.3 -91.9 423.2 -132.1 406.6C-172.3 390 -206.7 358.9 -239 329C-271.4 299.1 -301.8 270.2 -325.6 236.6C-349.5 203 -366.9 164.6 -382.8 124.4C-398.7 84.2 -413.1 42.1 -427.5 0L0 0Z" fill="#002e5e"></path><path d="M0 342C-36.8 340.3 -73.5 338.5 -105.7 325.3C-137.8 312 -165.3 287.2 -191.2 263.2C-217.1 239.2 -241.4 216.2 -260.5 189.3C-279.6 162.4 -293.5 131.7 -306.2 99.5C-319 67.3 -330.5 33.7 -342 0L0 0Z" fill="#00408b"></path><path d="M0 256.5C-27.6 255.2 -55.2 253.9 -79.3 243.9C-103.4 234 -124 215.4 -143.4 197.4C-162.8 179.4 -181.1 162.1 -195.4 142C-209.7 121.8 -220.1 98.8 -229.7 74.6C-239.2 50.5 -247.9 25.2 -256.5 0L0 0Z" fill="#0051ba"></path><path d="M0 171C-18.4 170.1 -36.8 169.3 -52.8 162.6C-68.9 156 -82.7 143.6 -95.6 131.6C-108.6 119.6 -120.7 108.1 -130.3 94.6C-139.8 81.2 -146.8 65.8 -153.1 49.8C-159.5 33.7 -165.2 16.8 -171 0L0 0Z" fill="#0060e8"></path><path d="M0 85.5C-9.2 85.1 -18.4 84.6 -26.4 81.3C-34.5 78 -41.3 71.8 -47.8 65.8C-54.3 59.8 -60.4 54 -65.1 47.3C-69.9 40.6 -73.4 32.9 -76.6 24.9C-79.7 16.8 -82.6 8.4 -85.5 0L0 0Z" fill="#0066ff"></path></g><g transform="translate(0, 540)"><path d="M0 -513C56.6 -512.4 113.1 -511.8 158.5 -487.9C203.9 -464 238.2 -416.7 276.3 -380.2C314.3 -343.8 356.3 -318.1 387.5 -281.5C418.8 -245 439.3 -197.7 458.4 -148.9C477.5 -100.2 495.3 -50.1 513 0L0 0Z" fill="#001c33"></path><path d="M0 -427.5C47.1 -427 94.3 -426.5 132.1 -406.6C169.9 -386.6 198.5 -347.3 230.2 -316.9C262 -286.5 296.9 -265.1 322.9 -234.6C349 -204.2 366.1 -164.7 382 -124.1C397.9 -83.5 412.7 -41.8 427.5 0L0 0Z" fill="#002e5e"></path><path d="M0 -342C37.7 -341.6 75.4 -341.2 105.7 -325.3C136 -309.3 158.8 -277.8 184.2 -253.5C209.6 -229.2 237.5 -212 258.3 -187.7C279.2 -163.4 292.9 -131.8 305.6 -99.3C318.4 -66.8 330.2 -33.4 342 0L0 0Z" fill="#00408b"></path><path d="M0 -256.5C28.3 -256.2 56.6 -255.9 79.3 -243.9C102 -232 119.1 -208.4 138.1 -190.1C157.2 -171.9 178.1 -159 193.8 -140.8C209.4 -122.5 219.6 -98.8 229.2 -74.5C238.8 -50.1 247.6 -25.1 256.5 0L0 0Z" fill="#0051ba"></path><path d="M0 -171C18.9 -170.8 37.7 -170.6 52.8 -162.6C68 -154.7 79.4 -138.9 92.1 -126.7C104.8 -114.6 118.8 -106 129.2 -93.8C139.6 -81.7 146.4 -65.9 152.8 -49.6C159.2 -33.4 165.1 -16.7 171 0L0 0Z" fill="#0060e8"></path><path d="M0 -85.5C9.4 -85.4 18.9 -85.3 26.4 -81.3C34 -77.3 39.7 -69.5 46 -63.4C52.4 -57.3 59.4 -53 64.6 -46.9C69.8 -40.8 73.2 -32.9 76.4 -24.8C79.6 -16.7 82.5 -8.4 85.5 0L0 0Z" fill="#0066ff"></path></g></svg>